<svg width="98" height="79" viewBox="0 0 98 79" fill="none" xmlns="http://www.w3.org/2000/svg">
<path d="M87.0466 14.7313C87.7619 15.5003 88.215 16.4165 88.7626 17.2875C89.443 18.37 90.1847 19.4712 90.6185 20.6904C91.0484 21.8988 91.3547 23.1535 91.536 24.4162C91.7176 25.6804 91.7757 26.9566 91.7102 28.2226C91.6446 29.487 91.4548 30.743 91.1383 31.9566C90.9231 32.7821 90.6493 33.5886 90.3171 34.3652C90.1711 34.7067 90.0148 35.04 89.8466 35.3688C89.7211 35.6139 89.5895 35.8551 89.4518 36.0921C89.4326 36.1251 89.406 36.1526 89.3773 36.1683C89.3487 36.184 89.3204 36.1868 89.2981 36.1758C89.2758 36.1647 89.261 36.1404 89.2559 36.1082C89.2509 36.0761 89.2562 36.0387 89.27 36.0037C89.3705 35.7502 89.4639 35.4943 89.5505 35.2364C89.6468 34.9497 89.7338 34.6626 89.8133 34.3722C89.9253 34.3618 90.0203 34.3256 90.0923 34.2199C90.129 34.1659 90.1648 34.0808 90.1674 34.0108C90.1698 33.948 90.1546 33.8954 90.1398 33.8456C90.1244 33.7936 90.1095 33.7444 90.1157 33.689C90.1263 33.5949 90.1097 33.4978 90.0913 33.3964C90.0846 33.3596 90.0777 33.3221 90.0717 33.2839C90.1285 33.0035 90.1781 32.7219 90.2206 32.4406C90.2554 32.336 90.2852 32.2389 90.2985 32.1541C90.3105 32.078 90.3032 32.0045 90.2902 31.9307C90.2956 31.8869 90.3007 31.8431 90.3057 31.7993C90.3381 31.5166 90.3636 31.2349 90.3828 30.9516C90.4398 30.7366 90.4946 30.5088 90.5351 30.2099C90.5525 30.0809 90.578 29.9542 90.6014 29.8318C90.6359 29.6512 90.6657 29.4794 90.6583 29.3281C90.6534 29.227 90.672 29.1218 90.6898 29.0164C90.7136 28.875 90.7357 28.7329 90.6978 28.6037C90.6739 28.5225 90.6442 28.4481 90.6162 28.3796C90.5718 28.2703 90.532 28.1761 90.528 28.0903C90.5204 27.9292 90.4839 27.7904 90.4508 27.6688C90.411 27.5225 90.3761 27.4009 90.4008 27.2906C90.4046 27.2739 90.4097 27.2547 90.4155 27.2331C90.4461 27.1191 90.4945 26.9353 90.4392 26.6811C90.4195 26.5907 90.381 26.5077 90.3429 26.427C90.2873 26.3094 90.2324 26.1965 90.2359 26.0682C90.2365 26.049 90.2458 26.0279 90.2542 26.0087C90.265 25.9842 90.2744 25.9628 90.2626 25.9523C90.228 25.9214 90.1876 25.8709 90.1434 25.8165C90.1109 25.7765 90.0763 25.7343 90.0407 25.6961C89.9787 25.375 89.9094 25.0555 89.8333 24.7381C89.7984 24.5926 89.762 24.4475 89.7242 24.3029C89.753 24.2187 89.7765 24.1332 89.7887 24.0454C89.8045 23.9305 89.7848 23.7904 89.7566 23.61C89.7357 23.4772 89.7102 23.3226 89.6896 23.1396C89.6516 22.8004 89.538 22.4717 89.4423 22.2693C89.4221 22.2265 89.4013 22.1837 89.3788 22.1381C89.2928 21.9652 89.1868 21.7502 88.9921 21.342C88.8071 20.956 88.6568 20.6287 88.5396 20.3838C88.4797 20.2587 88.4287 20.1554 88.3863 20.078C88.3137 19.9454 88.2257 19.7827 88.1348 19.6213C87.9932 19.3689 87.8419 19.1174 87.7465 18.9825C87.7126 18.9343 87.6758 18.8844 87.6359 18.8309C87.5251 18.6828 87.3903 18.5058 87.2149 18.2555C87.0305 17.9937 86.9295 17.8244 86.8332 17.6415C86.794 17.5674 86.7832 17.4842 86.7717 17.3987C86.7553 17.2773 86.7366 17.1496 86.6304 17.0369C86.6057 17.0106 86.5753 16.9856 86.5434 16.9596C86.4848 16.9119 86.4213 16.8609 86.3783 16.7918C86.3632 16.7677 86.3562 16.7417 86.3492 16.7161C86.3415 16.6879 86.3339 16.6603 86.3158 16.6366C86.248 16.5477 86.177 16.4647 86.1134 16.3918C86.0315 16.2977 85.9618 16.22 85.9265 16.1649C85.8636 16.0666 85.769 15.9814 85.6724 15.8969C85.5986 15.8324 85.5235 15.7681 85.4598 15.6971C85.278 15.494 84.995 15.2467 84.6825 15.0215C84.5641 14.9361 84.4895 14.8363 84.3913 14.7093C84.3302 14.6304 84.26 14.541 84.1635 14.4399C84.1088 14.3826 84.0434 14.3572 83.9831 14.3341C83.9274 14.3129 83.8759 14.2936 83.8395 14.2528C83.8074 14.2168 83.8059 14.1698 83.8043 14.1251C83.8025 14.0753 83.8004 14.0283 83.756 14.0033C83.7323 13.99 83.6954 13.9847 83.6515 13.9787C83.6341 13.9764 83.6157 13.9738 83.5965 13.9707C83.6016 13.9653 83.6057 13.9602 83.6087 13.9562C83.6297 13.9281 83.5995 13.8825 83.5694 13.838C83.5573 13.8202 83.5453 13.8026 83.5367 13.7863C83.5051 13.7261 83.4137 13.6548 83.3404 13.6056C83.3094 13.5847 83.2878 13.5565 83.2623 13.5236C83.2397 13.4944 83.214 13.4616 83.1762 13.4273C83.1546 13.4077 83.1419 13.387 83.1313 13.3698C83.1236 13.3573 83.1171 13.3467 83.1091 13.3397C83.1022 13.3337 83.0905 13.3381 83.0774 13.3431C83.068 13.3466 83.0578 13.3505 83.048 13.351C83.0247 13.3522 83.0021 13.3425 82.9903 13.3295C82.9848 13.3235 82.9817 13.3169 82.9787 13.3103C82.9751 13.3026 82.9716 13.2948 82.9642 13.2882C82.9302 13.2575 82.8869 13.2436 82.842 13.2293C82.7926 13.2137 82.7411 13.1977 82.6969 13.1587C82.683 13.1464 82.6702 13.1299 82.6577 13.114C82.6447 13.0974 82.6319 13.0813 82.6189 13.0712C82.5659 13.0303 82.4993 13.02 82.4381 13.0111C82.3975 13.0052 82.3591 12.9998 82.3286 12.9862C82.2725 12.9611 82.2291 12.9714 82.1974 12.9791C82.181 12.9831 82.1675 12.9865 82.1569 12.9838C82.1488 12.9784 82.1407 12.9727 82.1327 12.9671C82.1261 12.9609 82.1192 12.9544 82.1113 12.9509C82.1107 12.9507 82.1101 12.9505 82.1095 12.9502C82.0657 12.9177 82.0239 12.8833 81.9822 12.8492C81.8884 12.7727 81.7941 12.698 81.6767 12.6538C81.6515 12.6443 81.6214 12.6433 81.5909 12.6424C81.5535 12.6413 81.5153 12.6403 81.4839 12.624C81.409 12.5849 81.3405 12.53 81.2722 12.4765C81.1703 12.3965 81.0689 12.3195 80.9515 12.3052C80.9128 12.3005 80.8721 12.303 80.8314 12.3057C80.8087 12.3073 80.7859 12.3089 80.7635 12.3093C80.7738 12.2957 80.7818 12.2823 80.7893 12.2697C80.8047 12.2439 80.8179 12.2217 80.8446 12.2093C80.9077 12.1799 80.9847 12.1359 80.9991 12.0862C81.003 12.0728 81.0102 12.059 81.0176 12.0451C81.0361 12.0104 81.0552 11.9749 81.0207 11.9409C80.9975 11.9179 80.9358 11.8623 80.8785 11.8716C80.866 11.8736 80.8551 11.8832 80.843 11.8938C80.8212 11.913 80.7954 11.9356 80.7493 11.9251C80.7416 11.9233 80.7332 11.9212 80.7246 11.9189C80.6903 11.9098 80.6518 11.8998 80.6306 11.9139C80.6062 11.9302 80.5998 11.9571 80.5923 11.9885C80.5826 12.0294 80.5708 12.0778 80.516 12.1207C80.5051 12.1292 80.491 12.1281 80.4803 12.1274C80.4728 12.1269 80.4671 12.1265 80.4653 12.1297C80.4633 12.1332 80.4624 12.142 80.4614 12.1531C80.4577 12.1921 80.451 12.2601 80.3805 12.2367C80.3614 12.2304 80.3409 12.2195 80.3225 12.2097C80.2954 12.1953 80.2728 12.1834 80.2659 12.1925C80.2633 12.1959 80.261 12.1998 80.2587 12.2038C80.2364 12.1944 80.214 12.185 80.1916 12.1757C80.1669 12.1532 80.126 12.14 80.0746 12.1239C80.0622 12.12 80.049 12.1158 80.0354 12.1114C79.9915 12.0937 79.9475 12.0762 79.9033 12.0588C79.8693 12.042 79.8339 12.0212 79.7978 11.9949C79.7254 11.9423 79.668 11.8759 79.6109 11.8113C79.5868 11.7841 79.5628 11.7571 79.5377 11.7317C79.55 11.733 79.5612 11.7336 79.5703 11.7327C79.6323 11.7259 79.668 11.6876 79.701 11.6524C79.7229 11.6289 79.7437 11.6069 79.7702 11.5967C79.8188 11.578 79.8259 11.541 79.8312 11.5136C79.8339 11.4994 79.8362 11.4878 79.8435 11.4828C79.8494 11.4787 79.86 11.4792 79.8709 11.4797C79.8805 11.4802 79.8903 11.4807 79.8975 11.4782C79.9846 11.448 79.9732 11.411 79.9558 11.357C79.9462 11.3272 79.9349 11.2923 79.9376 11.2505C79.9423 11.2069 79.9487 11.1956 79.9918 11.191C79.9685 11.1615 79.9451 11.132 79.9215 11.1026C79.9094 11.1003 79.8967 11.1104 79.8779 11.1278C79.8443 11.1588 79.768 11.1511 79.7083 11.1457C79.6806 11.1431 79.6565 11.141 79.642 11.1432C79.5646 11.1548 79.5727 11.2037 79.5794 11.2465C79.5831 11.2701 79.5864 11.292 79.5754 11.3049C79.5706 11.3104 79.573 11.3179 79.5754 11.3255C79.5773 11.3314 79.5792 11.3374 79.5778 11.3427C79.568 11.3807 79.5202 11.3975 79.4761 11.4134C79.4509 11.4225 79.4268 11.4314 79.4116 11.4435C79.4069 11.4471 79.403 11.4511 79.3992 11.455C79.3937 11.4607 79.3884 11.466 79.3813 11.47C79.3652 11.4789 79.3366 11.4802 79.3053 11.4817C79.2892 11.4824 79.2724 11.4832 79.2563 11.4852C79.2354 11.4877 79.2247 11.501 79.2134 11.5148C79.2054 11.5246 79.1972 11.5347 79.1853 11.5417C79.1635 11.5543 79.127 11.5515 79.093 11.5491C79.0782 11.5481 79.0638 11.5472 79.0515 11.5475C79.0465 11.5477 79.0436 11.5497 79.0422 11.5532C78.9858 11.552 78.9317 11.552 78.8791 11.5524C78.6146 11.5549 78.389 11.562 78.0652 11.4679C78.0036 11.4501 77.9388 11.4412 77.871 11.4369C77.6602 11.3892 77.4461 11.3459 77.229 11.3073C77.1893 11.2676 77.1389 11.2328 77.0776 11.2038C76.9622 11.1494 76.8389 11.1303 76.6982 11.1104C76.5932 11.0957 76.4759 11.0803 76.3381 11.0506C76.1071 11.0008 75.8624 10.9622 75.5873 10.948C75.3205 10.9335 75.0096 10.9343 74.7876 10.945C74.6668 10.9505 74.5368 10.9291 74.4142 10.9107C74.2404 10.8849 74.0947 10.8637 74.0099 10.9278C73.9833 10.9483 73.9591 10.9813 73.9358 11.0134C73.9192 11.0362 73.9028 11.0586 73.8862 11.0758C73.8365 11.0773 73.7866 11.0792 73.7366 11.0811C73.6442 11.0572 73.501 11.0387 73.3738 11.0992C73.3215 11.1023 73.269 11.1058 73.2182 11.1092C73.1086 11.1167 72.9946 11.1261 72.8911 11.1344C72.8566 11.1372 72.8216 11.1402 72.7865 11.1433C72.7862 11.1433 72.7859 11.1433 72.7855 11.1434C72.7149 11.1496 72.6435 11.1564 72.573 11.1634C72.5428 11.1664 72.5126 11.1695 72.4823 11.1726C72.4053 11.1807 72.3275 11.1895 72.2507 11.1984C72.21 11.2031 72.1689 11.2081 72.1276 11.2132C72.0606 11.2215 71.9929 11.2302 71.9254 11.2393C71.8161 11.254 71.7067 11.2696 71.5965 11.2862C71.5785 11.2889 71.5601 11.2875 71.5454 11.282C71.5307 11.2765 71.5208 11.2674 71.5178 11.256C71.5149 11.2447 71.519 11.2318 71.5292 11.2198C71.5394 11.2078 71.5549 11.1977 71.5721 11.1913C71.6772 11.1525 71.782 11.1149 71.8871 11.0783C71.952 11.0557 72.0172 11.0334 72.0818 11.0117C72.1217 10.9983 72.1615 10.9851 72.2008 10.9722C72.2752 10.9477 72.3509 10.9235 72.4259 10.9001C72.4554 10.8909 72.4849 10.8817 72.5144 10.8726C72.5834 10.8514 72.6535 10.8304 72.7229 10.8101C72.7234 10.81 72.7238 10.8098 72.7242 10.8097C72.7584 10.7997 72.7925 10.7898 72.8262 10.7801C72.9281 10.7507 73.041 10.7204 73.15 10.6921C73.2069 10.6772 73.2662 10.6622 73.3249 10.6476C73.3576 10.6395 73.3903 10.6315 73.4223 10.6237C73.4398 10.6195 73.4575 10.6153 73.4753 10.6111C73.886 10.5135 74.2814 10.4336 74.7098 10.3687C75.1324 10.3047 75.5347 10.2588 75.9697 10.2312C76.4003 10.2042 76.809 10.1947 77.2465 10.207C79.958 10.2656 82.7232 11.2071 84.9692 12.8766C85.2904 13.1127 85.6094 13.3691 85.9108 13.6319C86.2151 13.8974 86.5024 14.1685 86.7858 14.4581C86.872 14.5462 86.9587 14.6369 87.0466 14.7313ZM3.19366 10.2522C5.89161 5.44531 10.5334 2.01336 15.8672 0.738315C22.5579 -0.938178 29.7978 1.06673 35.2979 4.86313C39.5584 7.76484 43.1077 11.5288 46.1398 15.6958L46.2731 15.9608C46.7025 17.4104 47.1311 18.8598 47.5589 20.3083C48.1136 22.1868 48.6672 24.0647 49.2198 25.9427L49.3451 26.3394L49.0718 26.673C46.7691 29.3744 44.4648 32.0733 42.1568 34.7727L42.2608 34.0854C42.6427 35.0298 43.0246 35.9744 43.4064 36.9194C45.235 41.4454 47.0627 45.9802 48.8872 50.5145L48.977 50.7236L48.8545 50.9258C47.9732 52.3081 47.0918 53.69 46.2104 55.0713C46.0578 55.3104 45.9052 55.5495 45.7525 55.7887L45.7718 55.4301C46.2287 56.417 46.6855 57.4041 47.1423 58.3914L47.1942 58.497L47.164 58.6173C46.3481 61.5682 45.5312 64.5197 44.7147 67.4686C44.389 68.6451 44.0638 69.8193 43.7385 70.9938L43.7385 70.9182C43.9114 71.6204 44.0843 72.3228 44.2574 73.0258C44.604 74.4341 44.9507 75.8424 45.2973 77.2507C45.3455 77.4464 45.3829 77.6363 45.4007 77.7789C45.4185 77.9214 45.4155 78.0052 45.3914 78.0113C45.3673 78.0173 45.3235 77.9451 45.2692 77.8116C45.215 77.6781 45.1548 77.4939 45.1011 77.2995C44.712 75.8897 44.3229 74.4798 43.9338 73.07C43.7447 72.3847 43.5557 71.7 43.3667 71.0153L43.3512 70.9535L43.3668 70.8965C43.5858 70.0104 43.8048 69.1244 44.024 68.2378C44.1875 68.0163 44.3513 67.6964 44.5509 67.069C44.6527 66.7488 44.7837 66.2772 44.8566 65.9238C44.922 65.6065 44.9543 65.363 44.9849 65.1318C45.0169 64.8899 45.0472 64.6604 45.1123 64.3717C45.2227 63.8819 45.3015 63.4096 45.3843 62.9135C45.4144 62.733 45.4451 62.5491 45.478 62.3601C45.8021 61.0503 46.1265 59.7404 46.4509 58.4306L46.4777 58.7102C46.3884 58.5302 46.2992 58.3502 46.21 58.1702C45.9609 57.6256 45.7308 57.1255 45.5251 56.7062C45.3632 56.3762 45.2007 56.0765 45.0354 55.7832L44.9309 55.5598L45.0582 55.3587C45.0802 55.3172 45.1021 55.2757 45.124 55.2342C45.2476 55.0286 45.3713 54.8229 45.495 54.6172C46.2932 53.29 47.0921 51.9624 47.8911 50.6349C47.9382 50.5625 47.9854 50.49 48.0329 50.417L47.9955 50.887C47.5824 49.8329 47.1409 48.7149 46.5611 47.2991C46.2921 46.6421 46.0356 45.99 45.7891 45.3632C45.425 44.4373 45.0824 43.5664 44.7526 42.8151C44.5322 42.3129 44.3232 41.7751 44.1147 41.2386C43.835 40.5191 43.5559 39.801 43.2505 39.1719C43.0585 38.7764 42.8753 38.4159 42.7057 38.082C42.4357 37.5508 42.1999 37.0868 42.0162 36.654C41.679 35.8596 41.3613 35.1794 41.08 34.5787L40.9383 34.2298L41.1748 33.9523C41.1842 33.94 41.1936 33.9277 41.2029 33.9155C41.6965 33.2714 42.1104 32.7312 42.517 32.2928C42.5786 32.2263 42.6498 32.1508 42.7301 32.0659C43.1529 31.6181 43.8292 30.902 44.7088 29.7979C45.022 29.4047 45.3012 29.023 45.5747 28.6492C45.9727 28.1049 46.3593 27.5764 46.8224 27.0514C46.8916 26.973 46.9706 26.8968 47.0426 26.8274C47.1342 26.7392 47.2141 26.6621 47.2481 26.6053C47.3476 26.4386 47.517 26.1834 47.7009 25.9061C47.7539 25.8263 47.8081 25.7445 47.8622 25.6624L47.7122 26.4025C47.6517 26.2628 47.5905 26.1228 47.531 25.9901C46.9858 24.2608 46.4412 22.531 45.8973 20.8004C45.6481 20.0076 45.399 19.2145 45.15 18.4211C45.0698 18.0009 44.9824 17.5728 44.8783 17.1244C44.8302 16.917 44.7721 16.6894 44.705 16.4391L44.8209 16.6697C44.5448 16.2689 44.2118 15.8128 43.8195 15.297C43.3728 14.7101 42.849 14.045 42.2425 13.3036C41.0839 11.8809 39.7137 10.5278 38.8568 9.7803C38.6621 9.60814 38.4605 9.43353 38.2476 9.25338C37.4084 8.55937 36.5243 7.78986 34.429 6.39023C32.539 5.14497 30.7183 4.23555 29.4277 3.69855C28.7181 3.40062 28.1321 3.1902 27.6837 3.04273C26.9234 2.79204 25.9699 2.522 24.9823 2.32239C23.4807 2.00759 21.8824 1.89841 21.0211 1.90862C20.713 1.90952 20.3862 1.91841 20.0255 1.93876C19.0308 2.00046 17.8709 2.11791 16.2807 2.51645C14.6452 2.94479 13.6484 3.36277 12.6581 3.81562C12.2533 4.00516 11.8886 4.15936 11.5163 4.33087C10.9899 4.57504 10.4399 4.85378 9.79421 5.35831C9.64353 5.47651 9.48752 5.609 9.32701 5.75064C9.03199 6.01084 8.72212 6.30208 8.39574 6.59279C8.28137 6.69469 8.17949 6.77699 8.07838 6.86048C7.96758 6.95202 7.85962 7.0432 7.74706 7.15671C7.32663 7.58048 6.94017 8.02046 6.61079 8.42687C6.1882 8.9477 5.86946 9.39774 5.66284 9.68048C5.29819 10.178 4.93629 10.7862 4.62603 11.3802C4.38412 11.8413 4.15589 12.3205 3.93782 12.7916C3.31286 14.1213 2.66266 16.0768 2.33667 18.1191C2.2088 18.9062 2.08915 19.5764 1.97701 20.4126C1.90809 20.9393 1.84185 21.5467 1.80601 22.3228C1.78605 22.7756 1.80818 23.1089 1.8326 23.4463C1.85538 23.7524 1.8809 24.0374 1.88435 24.3331C1.88757 24.5943 1.86135 24.7625 1.83697 24.9231C1.81014 25.1019 1.78551 25.2713 1.81584 25.5516C1.8321 25.7007 1.86641 25.8813 1.90985 26.0967C1.92734 26.1848 1.94487 26.2653 1.9639 26.3571C1.95608 26.3532 1.94943 26.3528 1.94448 26.3533C1.90949 26.3567 1.92072 26.6312 1.93709 26.9034C1.94351 27.012 1.95063 27.1206 1.95458 27.2102C1.96798 27.5396 2.05781 28.1628 2.14673 28.6439C2.18385 28.8472 2.20787 29.0342 2.23816 29.2535C2.26496 29.4473 2.29768 29.6716 2.34993 29.9465C2.37831 30.0966 2.39429 30.2138 2.40771 30.3108C2.41744 30.3811 2.42592 30.441 2.4373 30.4958C2.44718 30.5433 2.46597 30.5792 2.48718 30.6194C2.50245 30.6484 2.51905 30.6799 2.53457 30.7197C2.57161 30.8149 2.60675 30.9407 2.62472 31.0309C2.633 31.0725 2.63738 31.106 2.64176 31.1393C2.64687 31.1781 2.65194 31.2166 2.66364 31.2687C2.71736 31.5078 2.79017 31.7366 2.86846 31.9748C2.95458 32.2367 3.0473 32.5105 3.13105 32.824C3.15741 32.9227 3.18223 33.0292 3.20677 33.1325C3.23243 33.2406 3.25801 33.3458 3.2841 33.4342C3.39326 33.8027 3.51862 34.0979 3.64122 34.3826C3.72232 34.5705 3.80047 34.7481 3.86473 34.9166C3.98273 35.2256 4.07442 35.3829 4.1417 35.4986C4.17666 35.5586 4.20538 35.6075 4.229 35.6613C4.24742 35.7119 4.26609 35.7632 4.28437 35.8136C4.30002 35.8603 4.3163 35.9086 4.33435 35.9528C4.33572 35.9562 4.33714 35.9595 4.3385 35.9628C4.44107 36.2457 4.54256 36.5259 4.64694 36.8055C4.88354 37.4385 5.12775 38.0512 5.41867 38.6478C5.48228 38.7783 5.55658 38.9073 5.63297 39.0387C5.72656 39.1996 5.82351 39.3644 5.90814 39.54C6.10982 39.9587 6.3058 40.3913 6.50731 40.8197C6.80972 41.4635 7.13068 42.1061 7.45547 42.6075C7.56538 42.7778 7.68039 42.9405 7.79704 43.1036C7.86204 43.1946 7.92782 43.286 7.99339 43.3789C7.96693 43.3666 7.94708 43.3635 7.92856 43.3606C7.89042 43.3547 7.85759 43.3494 7.78365 43.2667C7.6088 43.0712 7.40314 42.8556 7.37474 42.9091C7.36704 42.9236 7.35007 42.9253 7.33266 42.9264C7.28912 42.9292 7.24401 42.9319 7.34831 43.1475C7.41833 43.2927 7.60544 43.6654 7.76917 43.8785C7.80471 43.9249 7.8341 43.9485 7.8668 43.9747C7.9257 44.0219 7.99506 44.078 8.13407 44.2908C8.1575 44.3267 8.18287 44.3658 8.20906 44.4063C8.3134 44.5677 8.43209 44.7487 8.4929 44.8062C8.56288 44.8724 8.57547 44.8409 8.59014 44.8042C8.6093 44.7564 8.63185 44.6998 8.78948 44.8375C8.82072 44.8648 8.86482 44.9267 8.89829 44.9735C8.92185 45.0065 8.93999 45.0316 8.94467 45.0324C8.94996 45.0331 8.95015 45.0176 8.95033 44.998C8.95124 44.9287 8.95181 44.8083 9.18184 45.1611C9.24427 45.2566 9.31287 45.3681 9.37486 45.4682C9.46617 45.6156 9.54319 45.7383 9.5629 45.7486C9.57031 45.7523 9.57688 45.7542 9.58308 45.7552C9.65855 45.8717 9.73464 45.9882 9.81137 46.1049C9.89785 46.2569 10.0266 46.4456 10.1951 46.6884C10.2359 46.7471 10.2789 46.809 10.3238 46.8734C10.4691 47.0881 10.6167 47.3032 10.7664 47.5185C10.8823 47.6912 11.0045 47.877 11.1316 48.0762C11.3863 48.4755 11.5968 48.8373 11.8072 49.192C11.8959 49.3415 11.9848 49.4898 12.0774 49.6393C12.0342 49.5865 11.9949 49.5393 11.9635 49.5038C11.7486 49.2612 11.6342 49.1863 11.5283 49.1174C11.458 49.0715 11.3916 49.0281 11.3042 48.9399C11.1444 48.7784 11.128 48.8187 11.1154 48.8485C11.1089 48.8639 11.1034 48.8762 11.0799 48.8563C11.0611 48.8402 11.0259 48.7969 10.9896 48.7523C10.958 48.7134 10.9255 48.6732 10.9023 48.6492C10.6219 48.3584 10.6672 48.4741 10.7329 48.643C10.7693 48.7362 10.8122 48.8453 10.8104 48.9114C10.8023 48.973 10.7829 48.9684 10.6443 48.8083C10.7242 48.9535 10.805 49.0989 10.8867 49.2444C10.9266 49.2958 10.9667 49.3273 11.0259 49.3697C11.1315 49.4452 11.386 49.7596 11.5891 50.0056C11.6829 50.1195 11.7653 50.2186 11.8147 50.2725C12.0777 50.5589 12.0442 50.4422 12.0142 50.3397C11.9978 50.2832 11.983 50.2313 12.0192 50.2527C12.0346 50.2618 12.0252 50.239 12.0157 50.2159C12.0084 50.1981 12.0009 50.1798 12.0047 50.1759C12.0327 50.1478 12.1956 50.3104 12.3484 50.4612C12.4359 50.5476 12.5199 50.6299 12.5722 50.6707C12.5881 50.6832 12.6017 50.6924 12.6145 50.7009C12.6332 50.7134 12.6513 50.7257 12.6761 50.7478C12.7314 50.7968 12.8252 50.9008 12.931 51.0175C12.985 51.077 13.0416 51.1393 13.0962 51.1974C13.167 51.2727 13.2026 51.2918 13.2399 51.3121C13.2663 51.3264 13.2938 51.3415 13.3351 51.3768C13.4098 51.4408 13.5387 51.5884 13.6595 51.7255C13.712 51.7852 13.7631 51.8429 13.8072 51.8908C13.8251 51.9103 13.8353 51.9184 13.8399 51.9182C14.0415 52.1416 14.237 52.3546 14.4294 52.562C15.3772 53.5797 16.3337 54.5755 17.5045 55.8675C17.7331 56.119 17.9885 56.383 18.2532 56.6468C19.0757 57.5147 19.9342 58.386 20.8285 59.2588C20.9864 59.4578 21.1775 59.6791 21.4048 59.9234C21.8361 60.386 22.3124 60.8365 22.8888 61.3684C23.3153 61.7617 23.7966 62.1996 24.3626 62.721C25.3181 63.6008 26.3309 64.4914 27.4302 65.3978C28.5438 66.3175 29.8824 67.3648 30.863 68.1015C31.3982 68.5047 31.9478 68.9475 32.4207 69.3262C33.1014 69.8704 33.7288 70.359 34.1588 70.5943C34.296 70.6695 34.4367 70.7312 34.5738 70.7912C34.6715 70.834 34.7679 70.8763 34.8597 70.9216C35.0788 71.079 35.2994 71.2365 35.5213 71.3941C35.8994 71.6966 36.5038 72.1527 37.1422 72.5288C37.3775 72.6911 37.6143 72.8534 37.8441 73.0104C38.3634 73.3638 38.7984 73.6582 39.2748 73.9763C39.4284 74.0789 39.5841 74.1826 39.7408 74.2864C39.7423 74.2874 39.7438 74.2884 39.7453 74.2894C40.0607 74.4984 40.3809 74.709 40.698 74.916C40.8339 75.0047 40.9701 75.0934 41.1068 75.182C41.4542 75.4073 41.8069 75.634 42.1562 75.8568C42.341 75.9748 42.5284 76.0938 42.7169 76.213C43.0227 76.4064 43.3328 76.6011 43.6434 76.7948C44.1458 77.108 44.6511 77.4196 45.1627 77.7315C45.2463 77.7826 45.3248 77.8352 45.3802 77.8779C45.4356 77.9206 45.4637 77.9501 45.4577 77.9601C45.4517 77.9702 45.4119 77.9603 45.3472 77.9331C45.2825 77.9059 45.1981 77.8635 45.1126 77.8158C44.5889 77.5231 44.0711 77.2302 43.5565 76.9357C43.2385 76.7536 42.921 76.5705 42.6077 76.3885C42.4146 76.2763 42.2228 76.1643 42.0333 76.0532C41.6754 75.8434 41.3134 75.6293 40.9572 75.4167C40.8171 75.3331 40.6774 75.2495 40.538 75.1658C40.2119 74.9699 39.8826 74.7704 39.5581 74.5723C39.5562 74.5711 39.5542 74.5699 39.5522 74.5687C39.3926 74.4712 39.2338 74.3738 39.0772 74.2775C38.5883 73.9763 38.1402 73.6981 37.6081 73.3609C37.3421 73.1927 37.0667 73.0171 36.7951 72.8427C36.6439 72.7456 36.4935 72.6487 36.3463 72.5535C36.2659 72.5014 36.1845 72.4486 36.1028 72.3955C34.2102 71.1639 32.5111 70.0077 30.682 68.6904C28.8448 67.3654 27.1139 66.046 25.4486 64.7033C23.6711 63.2671 22.0022 61.8311 20.4334 60.3946C10.2185 50.9336 0.996766 38.8986 0.0979168 24.217C0.00500375 22.2182 0.115413 20.0478 0.473638 17.999C0.830361 15.9432 1.42302 13.9408 2.29788 12.0142C2.56644 11.4232 2.86409 10.835 3.19366 10.2522ZM94.4649 17.3557C92.6194 12.7321 89.1774 8.84675 84.4798 6.97963C78.6002 4.6012 71.7832 5.79253 66.1359 8.54558C61.7551 10.6453 57.8292 13.6819 54.2985 17.2147L54.539 16.4638C54.7629 17.9634 54.9861 19.4626 55.2086 20.9609C55.4958 22.8952 55.7819 24.8287 56.0671 26.7622L56.1359 27.1729L55.8184 27.4652C53.1624 29.8161 50.505 32.1642 47.844 34.5124L48.0431 33.8458C48.2907 34.8383 48.5382 35.831 48.7856 36.8241C49.9652 41.5593 51.1427 46.3031 52.3171 51.0459L52.3769 51.2657L52.2273 51.4488C51.1615 52.6943 50.0957 53.9394 49.03 55.1839C48.8463 55.3984 48.6626 55.6129 48.4789 55.8274L48.5481 55.4749C48.863 56.5164 49.178 57.5581 49.4928 58.6L49.5295 58.7118L49.4828 58.8267C48.2637 61.6347 47.0437 64.4432 45.8243 67.2492C45.3384 68.3673 44.8533 69.4833 44.3681 70.5996L44.3787 70.5247C44.4522 71.2452 44.5257 71.9659 44.5993 72.6872C44.7464 74.1297 44.8935 75.5722 45.0406 77.0147C45.061 77.2153 45.0716 77.4084 45.0694 77.552C45.0672 77.6956 45.0526 77.7782 45.0278 77.7808C45.0031 77.7835 44.9697 77.7059 44.9346 77.5662C44.8996 77.4265 44.8656 77.2356 44.8395 77.0358C44.6506 75.5858 44.4616 74.1359 44.2727 72.686C44.1807 71.9799 44.0888 71.2745 43.9969 70.5691L43.9901 70.5057L44.0135 70.4514C44.3533 69.6059 44.6931 68.7605 45.0332 67.9144C45.226 67.7179 45.4327 67.4241 45.7177 66.8307C45.8631 66.5279 46.0585 66.0793 46.1799 65.7396C46.2889 65.4346 46.3548 65.198 46.4173 64.9734C46.4826 64.7384 46.5446 64.5154 46.6493 64.2387C46.8268 63.7691 46.9706 63.3125 47.1217 62.8329C47.1767 62.6584 47.2326 62.4806 47.2915 62.2981C47.7951 61.0462 48.2988 59.7942 48.8026 58.5424L48.7902 58.823C48.727 58.6327 48.6639 58.4425 48.6008 58.2522C48.4301 57.6784 48.272 57.1511 48.1268 56.7074C48.0122 56.3568 47.8926 56.0365 47.7693 55.722L47.6969 55.486L47.8512 55.3045C47.8781 55.2674 47.9049 55.2304 47.9316 55.1934C48.0827 55.0071 48.2339 54.8207 48.3851 54.6344C49.3607 53.432 50.337 52.2294 51.3134 51.0268C51.3703 50.9615 51.4274 50.896 51.4848 50.8302L51.3821 51.2905C51.1201 50.1897 50.8388 49.0216 50.4623 47.5396C50.2875 46.8517 50.1245 46.1704 49.9677 45.5155C49.7362 44.5482 49.5185 43.6382 49.2967 42.8485C49.1484 42.3206 49.0164 41.759 48.8847 41.1989C48.7082 40.4476 48.5319 39.6978 48.3172 39.0324C48.1822 38.6141 48.0511 38.2317 47.9297 37.8775C47.7364 37.3141 47.5675 36.8218 47.446 36.3678C47.2214 35.5287 47.0002 34.807 46.8044 34.1699L46.7125 33.8041L46.986 33.562C46.9938 33.5543 47.0016 33.5467 47.0094 33.539C47.588 32.9704 48.0733 32.4935 48.5372 32.1164C48.6075 32.0593 48.6886 31.9945 48.7799 31.9216C49.2611 31.5375 50.0307 30.9233 51.056 29.9533C51.421 29.608 51.7508 29.2692 52.0738 28.9374C52.544 28.4543 53.0006 27.9852 53.5325 27.5303C53.6119 27.4623 53.7008 27.3979 53.7818 27.3393C53.8847 27.2648 53.9747 27.1997 54.0162 27.1482C54.1381 26.9971 54.3414 26.7681 54.5622 26.5194C54.6276 26.4458 54.6946 26.3703 54.7615 26.2946L54.5092 27.0078C54.4694 26.8636 54.4291 26.7193 54.3894 26.5821C54.0904 24.7942 53.7921 23.0058 53.4946 21.2168C53.3583 20.3972 53.2222 19.5773 53.0861 18.7571C53.0653 18.33 53.0384 17.894 52.9978 17.4356C52.9786 17.2197 52.9523 16.9817 52.9199 16.719L52.8627 16.332L53.129 16.0661C53.4878 15.7233 53.9009 15.3239 54.3836 14.8755C54.9387 14.3603 55.5864 13.7794 56.3477 13.1561C57.7984 11.9584 59.3699 10.761 60.3213 10.0729C60.5369 9.91603 60.7618 9.75522 60.9978 9.58993C61.9287 8.95573 62.908 8.238 65.2494 7.02874C67.3604 5.95129 69.3983 5.24899 70.8322 4.86351C71.6214 4.64904 72.2702 4.50897 72.7644 4.40935C73.6027 4.23958 74.6525 4.07947 75.7354 3.99898C77.3831 3.86369 79.1205 3.96237 80.0553 4.07012C80.3899 4.10571 80.7443 4.14982 81.1358 4.21083C82.2141 4.38497 83.4766 4.63665 85.1761 5.29206C86.9221 5.98598 87.952 6.62654 88.9415 7.32044C89.3459 7.60908 89.6743 7.90148 90.001 8.21151C90.4633 8.65292 90.9284 9.1277 91.5722 9.74135C91.7226 9.88528 91.8845 10.0381 92.051 10.2013C92.3569 10.501 92.6791 10.8373 92.9741 11.2125C93.0778 11.3443 93.1579 11.4622 93.2372 11.5808C93.324 11.7109 93.4078 11.8392 93.5106 11.9789C93.8945 12.5005 94.2474 13.0275 94.5439 13.5104C94.9247 14.1299 95.2032 14.6572 95.3648 14.9994C95.6494 15.6008 95.9725 16.2909 96.2443 16.9602C96.4559 17.4799 96.6513 18.0186 96.8094 18.555C97.2658 20.0714 97.7226 22.2294 97.8633 24.4405C97.9191 25.2925 97.8966 26.0264 97.8277 26.92C97.7831 27.4833 97.7182 28.1274 97.6094 28.9402C97.5457 29.4131 97.5175 29.7668 97.4832 30.1216C97.452 30.444 97.4178 30.7451 97.3517 31.0503C97.293 31.3199 97.2228 31.485 97.1558 31.6413C97.0809 31.8154 97.0099 31.9785 96.9521 32.267C96.9212 32.4206 96.8957 32.6107 96.8623 32.838C96.8486 32.93 96.8357 33.0191 96.8206 33.1151C96.8147 33.1085 96.8086 33.1057 96.8038 33.1044C96.7699 33.0956 96.6819 33.3685 96.5901 33.637C96.5536 33.7442 96.5165 33.8511 96.4836 33.9383C96.3634 34.259 96.1724 34.8824 96.0149 35.3638C95.9488 35.5674 95.8763 35.7487 95.7895 35.9603C95.7124 36.148 95.6234 36.3612 95.5153 36.633C95.4569 36.7792 95.4045 36.8892 95.3608 36.9802C95.3292 37.046 95.302 37.102 95.28 37.1552C95.2609 37.2012 95.2557 37.2425 95.2498 37.2888C95.2456 37.3222 95.2409 37.3585 95.2302 37.4013C95.2049 37.5034 95.1588 37.6301 95.1192 37.7162C95.101 37.756 95.0843 37.7866 95.0678 37.8169C95.0485 37.8523 95.0292 37.8874 95.0068 37.9376C94.9042 38.168 94.8189 38.3997 94.7272 38.6411C94.6264 38.9064 94.5178 39.1841 94.3688 39.4833C94.322 39.5775 94.2679 39.6762 94.2151 39.7718C94.1599 39.8718 94.1057 39.969 94.063 40.0535C93.8857 40.405 93.7602 40.7133 93.6368 41.0062C93.5552 41.2001 93.4761 41.3836 93.3924 41.5494C93.2388 41.8533 93.1767 42.0297 93.1311 42.16C93.1073 42.2275 93.0878 42.2827 93.0611 42.3371C93.0335 42.3854 93.0053 42.4343 92.9774 42.4821C92.9508 42.5253 92.9232 42.5701 92.8997 42.6134C92.8979 42.6167 92.8962 42.62 92.8944 42.6233C92.7361 42.8904 92.5741 43.1515 92.4095 43.4111C92.0374 43.9982 91.6603 44.5646 91.302 45.1428C91.2235 45.2695 91.1507 45.4039 91.0756 45.5407C90.9836 45.7084 90.888 45.8802 90.7748 46.0457C90.505 46.4401 90.2095 46.8285 89.9105 47.2108C89.4619 47.7848 88.9959 48.3556 88.6484 48.8566C88.5301 49.0269 88.4189 49.1977 88.306 49.3692C88.2431 49.4648 88.1794 49.561 88.1137 49.6572C88.1162 49.6276 88.1123 49.6077 88.1087 49.5892C88.1012 49.5509 88.0949 49.518 88.1472 49.4177C88.271 49.1804 88.3968 48.905 88.3361 48.8991C88.3197 48.8976 88.3119 48.8823 88.3044 48.8665C88.2855 48.8269 88.2667 48.7866 88.1035 48.9649C87.9937 49.0852 87.7107 49.3958 87.564 49.6235C87.5322 49.6731 87.5197 49.709 87.5057 49.7489C87.4804 49.8207 87.4507 49.9061 87.2924 50.109C87.2657 50.1431 87.2365 50.1802 87.2061 50.2183C87.0849 50.3706 86.9473 50.541 86.9101 50.6171C86.8674 50.7048 86.9013 50.7071 86.9409 50.7098C86.9925 50.7133 87.0543 50.7171 86.9672 50.9118C86.9499 50.9504 86.9027 51.0121 86.8669 51.0586C86.8417 51.0914 86.8224 51.1166 86.823 51.1213C86.8238 51.1266 86.8388 51.1222 86.8579 51.1164C86.9249 51.0959 87.0436 51.0604 86.7637 51.3896C86.6878 51.4786 86.5974 51.5779 86.5158 51.6669C86.3956 51.7979 86.2947 51.9068 86.2896 51.9289C86.2878 51.9371 86.2876 51.9441 86.2882 51.9504C86.1929 52.0561 86.097 52.1618 86.0005 52.2676C85.8692 52.3946 85.7149 52.5674 85.511 52.792C85.4618 52.8461 85.4098 52.9032 85.3554 52.9624C85.1733 53.1557 84.989 53.349 84.8027 53.5421C84.6525 53.6929 84.4891 53.8513 84.3114 54.015C83.9555 54.343 83.624 54.6123 83.2964 54.8747C83.1584 54.9852 83.0207 55.0946 82.8817 55.2068C82.9296 55.1567 82.9722 55.1111 83.004 55.0749C83.2206 54.827 83.2793 54.7012 83.3336 54.5856C83.3696 54.5087 83.4035 54.4362 83.4784 54.3355C83.6153 54.1511 83.5721 54.1412 83.5408 54.1336C83.5245 54.1297 83.5115 54.1261 83.5276 54.0997C83.5407 54.0784 83.5781 54.0366 83.6166 53.9933C83.6501 53.9556 83.6846 53.9167 83.7046 53.8897C83.9459 53.5626 83.8382 53.6275 83.6828 53.7213C83.5969 53.773 83.4961 53.8333 83.4306 53.842C83.3684 53.8438 83.3704 53.8242 83.505 53.6615C83.3754 53.7641 83.2451 53.8666 83.1141 53.9689C83.0696 54.0159 83.0445 54.0602 83.0115 54.1248C82.9528 54.2402 82.6777 54.536 82.4584 54.767C82.357 54.874 82.2681 54.9671 82.2202 55.0222C81.9648 55.3151 82.0762 55.269 82.1754 55.2281C82.2298 55.2056 82.28 55.1849 82.2625 55.2234C82.2551 55.2398 82.2769 55.2278 82.2988 55.2158C82.3158 55.2065 82.3332 55.197 82.3375 55.2003C82.3686 55.2249 82.2243 55.406 82.0882 55.5742C82.0103 55.6705 81.9355 55.7624 81.8992 55.8187C81.8882 55.8358 81.8801 55.8502 81.8726 55.8638C81.8617 55.8837 81.851 55.903 81.831 55.9298C81.7843 55.9918 81.6893 56.0938 81.5796 56.2098C81.5238 56.2689 81.4653 56.3306 81.4106 56.3898C81.3397 56.4665 81.3227 56.5035 81.3047 56.5425C81.2919 56.57 81.2784 56.5987 81.2453 56.6426C81.1854 56.7222 81.0439 56.8615 80.9113 56.9907C80.8536 57.0469 80.7976 57.1014 80.7511 57.1482C80.7321 57.1672 80.7244 57.1778 80.7248 57.1825C80.5074 57.3965 80.2978 57.6015 80.0917 57.801C79.0782 58.7817 78.0427 59.7312 76.6321 60.8039C76.3576 61.0126 76.0656 61.2437 75.7696 61.4804C74.8015 62.2107 73.7977 62.9372 72.7589 63.6584C72.5316 63.7771 72.2728 63.924 71.9845 64.0974C71.4373 64.4268 70.8876 64.7938 70.2247 65.2251C69.7343 65.5439 69.1818 65.8978 68.5171 66.2964C67.3955 66.9688 66.2236 67.6539 64.9838 68.3693C63.7276 69.0964 62.2362 69.926 61.1531 70.512C60.5621 70.8328 59.9224 71.1401 59.3723 71.3972C58.581 71.7686 57.8566 72.0985 57.4458 72.3678C57.3146 72.4538 57.1933 72.5487 57.0748 72.641C56.9904 72.7067 56.9068 72.7714 56.8227 72.8304C56.5785 72.9477 56.3328 73.0649 56.0859 73.1818C55.6353 73.3648 54.9376 73.6632 54.2852 74.0192C54.0243 74.1384 53.762 74.2575 53.5074 74.3719C52.933 74.6308 52.4504 74.8429 51.924 75.0722C51.7541 75.1461 51.582 75.2206 51.4089 75.2952C51.4073 75.2959 51.4056 75.2966 51.404 75.2973C51.0556 75.4473 50.7023 75.5981 50.3526 75.7457C50.2029 75.8089 50.0527 75.8721 49.9021 75.9351C49.5195 76.0954 49.1314 76.2563 48.7474 76.4136C48.5442 76.4968 48.3383 76.5808 48.1313 76.6646C47.7954 76.8007 47.4551 76.9374 47.1145 77.0728C46.5638 77.2919 46.0104 77.5086 45.4509 77.7244C45.3594 77.7597 45.2697 77.7897 45.202 77.8074C45.1344 77.8251 45.0938 77.8293 45.0895 77.8184C45.0852 77.8075 45.1175 77.7821 45.1786 77.7475C45.2396 77.713 45.3247 77.6721 45.4147 77.6334C45.9657 77.3965 46.5107 77.1589 47.0527 76.9193C47.3876 76.7713 47.7221 76.6221 48.0522 76.4737C48.2558 76.3822 48.4579 76.2908 48.6577 76.2C49.035 76.0285 49.4168 75.8534 49.7926 75.6793C49.9405 75.6107 50.0879 75.5421 50.2349 75.4734C50.5791 75.3127 50.9268 75.1489 51.2696 74.9859C51.2716 74.9849 51.2737 74.9839 51.2758 74.9829C51.4444 74.9027 51.6121 74.8225 51.7775 74.7431C52.2941 74.4952 52.7676 74.2644 53.3316 73.9876C53.6133 73.8488 53.9052 73.7042 54.1932 73.5603C54.3535 73.4802 54.513 73.4001 54.669 73.3214C54.7544 73.2783 54.8407 73.2347 54.9274 73.1909C56.9356 72.1723 58.7394 71.2057 60.6934 70.1019C62.6556 68.9921 64.5087 67.8781 66.3002 66.7352C68.2138 65.5169 70.0177 64.2884 71.7206 63.0505C82.8522 54.9089 93.1006 44.1738 95.6341 30.5459C95.9547 28.6906 96.1078 26.6641 96.0199 24.7354C95.9344 22.8025 95.6284 20.9044 95.0646 19.0544C94.8915 18.4873 94.6926 17.9203 94.4649 17.3557Z" fill="#BE9904"/>
</svg>
